<svg xmlns="http://www.w3.org/2000/svg" width="78" height="32" fill="none" viewBox="0 0 78 32"><g fill="#8654CC" clip-path="url(#a)"><path d="M30.574 12.673h3.417V3.469h4.513V.3h-7.93zm-7.059-2.758a2.69 2.69 0 0 1-2.808-2.806h8.426s.056-.636.056-1.29c0-3.742-2.22-5.8-5.683-5.8-3.66 0-6.207 2.666-6.207 6.473s2.509 6.547 6.17 6.547c3.398 0 5.682-1.955 5.748-4.845h-3.342a2.13 2.13 0 0 1-2.36 1.72m0-7.052a2.127 2.127 0 0 1 2.406 1.87h-5.027a2.63 2.63 0 0 1 2.659-1.87zM11.344.299l-2.35 7.585L6.7.299H2.937L.97 12.673h3.136l1.189-7.698 2.312 7.698h2.687l2.397-7.838 1.142 7.838h3.183L15.051.299zM44.766 0c-3.642 0-5.71 1.786-5.617 4.826h3.539c0-1.29.674-1.87 2.087-1.87 1.012 0 1.648.42 1.648 1.056 0 .412-.159.57-.777.749l-2.809.776c-2.733.739-3.95 1.87-3.95 3.741 0 2.217 1.61 3.694 3.979 3.694a3.6 3.6 0 0 0 3.65-2.132v1.87h3.268V4.453C49.737 1.468 47.846 0 44.766 0M43.55 10.092c-.87 0-1.292-.421-1.292-1.038 0-.618.3-.936 1.236-1.226l2.958-.832v.224a2.8 2.8 0 0 1-1.783 2.68c-.356.14-.737.204-1.119.192m22.983 5.883v3.16h3.54v9.213h3.416v-9.212h3.54v-3.161zm-12.301 0H50.47l-2.66 4.592h-1.357v-4.592h-3.417v12.373h3.417v-4.741h1.34l2.855 4.741h3.857l-3.773-6.313zm-30.501-.299c-3.642 0-5.72 1.786-5.617 4.826h3.539c0-1.29.674-1.87 2.087-1.87 1.012 0 1.648.43 1.648 1.066 0 .402-.16.56-.786.738l-2.809.777c-2.724.748-3.941 1.87-3.941 3.74 0 2.208 1.61 3.695 3.979 3.695a3.54 3.54 0 0 0 3.641-2.142v1.87h3.277V20.09c-.047-2.946-1.938-4.414-5.018-4.414m-1.236 10.091c-.852 0-1.282-.42-1.282-1.047s.308-.935 1.245-1.197l2.949-.833v.206a2.804 2.804 0 0 1-2.912 2.871m14.557-10.092a3.355 3.355 0 0 0-3.342 2.15v-1.87h-3.417v15.769h3.417v-5.2a3.36 3.36 0 0 0 3.342 2.104c2.81 0 4.682-2.188 4.682-6.472s-1.845-6.481-4.682-6.481m-.936 9.792c-1.563 0-2.5-1.066-2.5-3.311s.937-3.32 2.481-3.32c1.545 0 2.313 1.075 2.313 3.32s-.786 3.31-2.312 3.31zm-24.772-9.492-2.35 7.575L6.7 15.975H2.937L.97 28.348h3.136l1.189-7.697 2.312 7.697h2.687l2.397-7.837 1.142 7.837h3.183L15.05 15.975z"/><path d="M60.054 25.589a2.7 2.7 0 0 1-2.808-2.806h8.426s.056-.636.056-1.29c0-3.742-2.21-5.8-5.683-5.8-3.66 0-6.207 2.666-6.207 6.463s2.509 6.547 6.17 6.547c3.398 0 5.682-1.964 5.757-4.845h-3.351a2.13 2.13 0 0 1-2.36 1.73m0-7.052a2.147 2.147 0 0 1 2.416 1.87h-5.037a2.62 2.62 0 0 1 2.659-1.87z"/></g><defs><clipPath id="a"><path fill="#fff" d="M.97 0h76.06v32H.97z"/></clipPath></defs></svg>